<svg width="45" height="56" viewBox="0 0 45 56" fill="none" xmlns="http://www.w3.org/2000/svg">
<path fill-rule="evenodd" clip-rule="evenodd" d="M43.4987 18.6537C43.1374 19.4995 42.7962 20.2984 42.7962 20.9881C42.7962 21.6777 43.137 22.4761 43.4977 23.3213L43.4977 23.3213L43.4982 23.3224C44.0436 24.5993 44.6076 25.9198 44.1307 27.2193C43.6342 28.5729 42.2068 29.3959 40.9474 30.122L40.9468 30.1223C40.1199 30.5991 39.3388 31.0495 38.9133 31.5669C38.4785 32.0956 38.2312 32.9007 37.9695 33.753C37.6317 34.8533 37.2536 36.0793 36.332 36.9257L40.9556 51.6004C41.0555 51.9172 40.9521 52.2571 40.6862 52.4871C40.42 52.7169 40.0335 52.8001 39.6781 52.7043L33.3628 51.0017L28.9549 55.3503C28.7594 55.5432 28.4826 55.6497 28.1969 55.6497C28.1199 55.6497 28.0422 55.6419 27.9652 55.6261C27.6032 55.5511 27.316 55.3075 27.2162 54.9906L22.848 41.1286C22.7201 41.1404 22.5908 41.1487 22.4592 41.1487C22.3272 41.1487 22.1979 41.1405 22.0697 41.1286L17.7033 54.9906C17.6034 55.3075 17.3164 55.5511 16.9543 55.6261C16.8772 55.642 16.7994 55.6497 16.7223 55.6497C16.4368 55.6498 16.16 55.5433 15.9644 55.3505L11.5551 51.0018L5.24119 52.7045C4.88571 52.8005 4.49902 52.7173 4.23295 52.4873C3.96689 52.2574 3.86368 51.9174 3.9635 51.6005L7.69674 39.7531C7.84774 39.2738 8.40915 38.9937 8.95107 39.1272C9.49276 39.2609 9.8094 39.7579 9.6584 40.2372L6.42414 50.5014L11.5827 49.1103C11.9616 49.0084 12.3729 49.1098 12.6374 49.3706L16.2403 52.9238L20.1442 40.531C19.4857 40.192 18.8796 39.7598 18.3108 39.353L18.3104 39.3527L18.3104 39.3527C17.5546 38.8121 16.8408 38.3015 16.1731 38.1096C15.4557 37.9034 14.5063 37.9429 13.5015 37.985L13.5013 37.985C11.9455 38.0499 10.3366 38.117 9.06686 37.2992C7.78398 36.473 7.34029 35.0282 6.94888 33.7535L6.94831 33.7517C6.68669 32.9001 6.43955 32.0957 6.00514 31.5675C5.57961 31.05 4.79856 30.5997 3.97172 30.1229L3.97101 30.1225C2.71171 29.3964 1.28436 28.5734 0.787561 27.2197C0.310728 25.9202 0.874676 24.5998 1.42011 23.3228C1.7814 22.477 2.1226 21.6781 2.1226 20.9883C2.1226 20.2987 1.78154 19.5 1.42047 18.6544L1.42023 18.6539C0.874797 17.3769 0.310849 16.0565 0.787682 14.757C1.28424 13.4033 2.71159 12.5803 3.97101 11.8542L3.97169 11.8538L3.97171 11.8538C4.79856 11.377 5.57961 10.9267 6.00514 10.4092C6.43986 9.88059 6.68717 9.07549 6.94888 8.22318L6.94911 8.22244L6.94911 8.22243L6.94911 8.22242L6.94911 8.22242C7.34059 6.94788 7.78423 5.50352 9.06686 4.67749C10.3368 3.85954 11.9459 3.92668 13.5016 3.99168L13.5039 3.99177C14.508 4.0336 15.4564 4.07311 16.1734 3.86704C16.8407 3.67521 17.5545 3.16467 18.3102 2.6242L18.3107 2.62379C19.4879 1.78175 20.822 0.827393 22.4594 0.827393C24.0961 0.827393 25.4298 1.78099 26.6066 2.62236L26.608 2.62336C27.3639 3.16409 28.0779 3.67484 28.7456 3.86672C29.4631 4.07295 30.4123 4.03333 31.4173 3.99135L31.4174 3.99135C32.9731 3.92646 34.582 3.85936 35.8519 4.67717C37.1348 5.50336 37.5785 6.94813 37.9699 8.22285L37.9703 8.22412C38.232 9.07597 38.4791 9.88053 38.9136 10.4089C39.339 10.9263 40.1196 11.3764 40.9461 11.8529L40.9478 11.8539L40.949 11.8546C42.208 12.5807 43.6346 13.4035 44.1312 14.7569C44.608 16.0564 44.0441 17.3768 43.4987 18.6537ZM33.3354 49.1103L38.4955 50.5014L34.5085 37.8474C33.5334 38.0716 32.4636 38.0282 31.4173 37.9845L31.415 37.9844C30.411 37.9426 29.4627 37.903 28.7455 38.1091C28.0777 38.3012 27.3638 38.8118 26.6079 39.3525C26.0389 39.7596 25.4327 40.1918 24.7738 40.5309L28.6791 52.9237L32.2806 49.3706C32.545 49.1097 32.9565 49.008 33.3354 49.1103ZM42.1941 26.663C41.9197 27.4109 40.9076 27.9945 39.836 28.6123L39.8353 28.6127C38.8903 29.1576 37.9131 29.721 37.2669 30.5069C36.6117 31.3036 36.303 32.3088 36.0046 33.2808C35.6717 34.3648 35.3573 35.3886 34.6536 35.8419C33.9625 36.2868 32.7729 36.2372 31.5131 36.1847L31.5091 36.1845H31.509C30.3672 36.137 29.1865 36.0879 28.1165 36.3954C27.0904 36.6903 26.1944 37.3312 25.3277 37.9512C24.3242 38.669 23.3766 39.3468 22.4593 39.3468C21.5421 39.3468 20.5942 38.6688 19.5908 37.951L19.5907 37.9509C18.7242 37.3311 17.8279 36.6899 16.8021 36.3953C16.1264 36.2011 15.4067 36.1491 14.6805 36.1491C14.2553 36.1491 13.8277 36.1669 13.4055 36.1846C12.146 36.2372 10.9563 36.2868 10.2652 35.8418C9.56149 35.3886 9.24702 34.3647 8.91417 33.2807C8.6158 32.3086 8.30703 31.3034 7.65185 30.5068C7.00563 29.7209 6.02825 29.1573 5.08281 28.6122C4.01118 27.9944 2.99907 27.4107 2.72466 26.6628C2.46879 25.9654 2.88477 24.9913 3.32514 23.9602L3.32527 23.9599L3.3253 23.9598C3.73533 22.9998 4.15927 22.0072 4.15927 20.9883C4.15927 19.9694 3.73531 18.9766 3.32539 18.0168C2.88486 16.9856 2.46888 16.0114 2.72478 15.3138C2.99919 14.5659 4.0113 13.9823 5.08293 13.3645L5.08364 13.3641C6.02862 12.8192 7.00579 12.2557 7.65198 11.4701C8.30715 10.6734 8.61593 9.66826 8.91429 8.69623C9.24715 7.61221 9.56161 6.58846 10.2653 6.13511C10.9563 5.6901 12.1463 5.73968 13.4058 5.79236L13.4075 5.79243C14.55 5.84006 15.7317 5.88932 16.8024 5.58163C17.8283 5.28679 18.7243 4.64599 19.5908 4.02621L19.5912 4.02594C20.5945 3.30789 21.5423 2.62989 22.4594 2.62989C23.3766 2.62989 24.3246 3.30789 25.3278 4.02551C26.1944 4.64548 27.0907 5.28654 28.1166 5.58131C29.1879 5.88915 30.3698 5.8399 31.5131 5.79204L31.514 5.792C32.7732 5.73954 33.9627 5.69 34.6535 6.13478C35.3572 6.58803 35.6716 7.61189 36.0045 8.69591C36.3028 9.66794 36.6116 10.6732 37.2668 11.4698C37.913 12.2557 38.8904 12.8193 39.8357 13.3642C40.9074 13.982 41.9195 14.5656 42.194 15.3136C42.4499 16.0112 42.0339 16.9852 41.5934 18.0166C41.1833 18.9765 40.7594 19.9692 40.7594 20.9881C40.7594 22.0065 41.183 22.9983 41.5928 23.9577L41.5928 23.9577L41.5936 23.9597L41.5939 23.9602C42.0342 24.9914 42.4501 25.9653 42.1941 26.663ZM34.4846 15.092C34.995 14.8836 35.6001 15.0808 35.8357 15.5327C36.7307 17.2486 37.1845 19.0842 37.1846 20.9882C37.1846 28.1738 30.5789 34.0197 22.4594 34.0197C14.3399 34.0197 7.73412 28.1738 7.73412 20.9882C7.73412 13.8026 14.3399 7.95677 22.4594 7.95677C26.6118 7.95677 30.5923 9.52039 33.3804 12.2467C33.7579 12.6158 33.7257 13.1856 33.3088 13.5196C32.8914 13.8534 32.2479 13.825 31.8704 13.456C29.4678 11.1065 26.0376 9.75895 22.4594 9.75895C15.4628 9.75895 9.77067 14.7964 9.77067 20.9881C9.77067 27.18 15.4628 32.2173 22.4594 32.2173C29.456 32.2173 35.1481 27.18 35.1481 20.9881C35.1481 19.3468 34.7573 17.7654 33.9867 16.2879C33.7511 15.836 33.974 15.3006 34.4846 15.092ZM18.5266 15.3837C17.9642 15.3837 17.5083 15.7872 17.5083 16.2849C17.5083 16.7825 17.9642 17.186 18.5266 17.186H26.3923C26.9547 17.186 27.4106 16.7825 27.4106 16.2849C27.4106 15.7872 26.9547 15.3837 26.3923 15.3837H18.5266ZM17.5083 25.6914C17.5083 25.1937 17.9642 24.7903 18.5266 24.7903H26.3923C26.9547 24.7903 27.4106 25.1937 27.4106 25.6914C27.4106 26.1891 26.9547 26.5925 26.3923 26.5925H18.5266C17.9642 26.5925 17.5083 26.1891 17.5083 25.6914ZM29.2121 20.087H26.1448C25.5824 20.087 25.1265 20.4904 25.1265 20.9881C25.1265 21.4858 25.5824 21.8893 26.1448 21.8893H29.2121C29.7744 21.8893 30.2303 21.4859 30.2303 20.9881C30.2303 20.4904 29.7744 20.087 29.2121 20.087ZM15.7067 20.087H22.9559C23.5182 20.087 23.9742 20.4904 23.9742 20.9881C23.9742 21.4858 23.5182 21.8893 22.9559 21.8893H15.7067C15.1443 21.8893 14.6884 21.4858 14.6884 20.9881C14.6884 20.4904 15.1443 20.087 15.7067 20.087Z" fill="#FF7F57"/>
</svg>
